<?xml version="1.0" encoding="UTF-8"?><!DOCTYPE svg PUBLIC "-//W3C//DTD SVG 1.1//EN" "http://www.w3.org/Graphics/SVG/1.1/DTD/svg11.dtd"><svg xmlns="http://www.w3.org/2000/svg" xmlns:xlink="http://www.w3.org/1999/xlink"><defs/><symbol id="button-arrow" viewBox="0 0 30 20"><path fill="currentColor" d="M2.632 8.498l17.838.007c.991 0 1.489-1.175.789-1.864l-2.796-2.748a1.077 1.077 0 0 1 .002-1.544l.56-.549a1.128 1.128 0 0 1 1.573 0l7.56 7.431a1.077 1.077 0 0 1-.002 1.544L20.579 18.2a1.129 1.129 0 0 1-1.574-.001l-.559-.55a1.077 1.077 0 0 1 .002-1.544l2.802-2.746c.702-.688.207-1.863-.785-1.864l-17.837-.006c-.615 0-1.112-.49-1.111-1.093l.001-.807a1.104 1.104 0 0 1 1.114-1.091z"/></symbol><symbol id="cookie-close" viewBox="0 0 54 54"><path fill="currentColor" d="M36.707 18.707l-1.414-1.414L27 25.586l-8.293-8.293-1.414 1.414L25.586 27l-8.293 8.293 1.414 1.414L27 28.414l8.293 8.293 1.414-1.414L28.414 27z"/><path fill="currentColor" d="M27 53C12.664 53 1 41.336 1 27S12.664 1 27 1c14.337 0 26 11.664 26 26S41.337 53 27 53zm0-50C13.767 3 3 13.767 3 27s10.767 24 24 24 24-10.767 24-24S40.233 3 27 3z"/></symbol><symbol id="faqs-arrow" viewBox="0 0 30 20"><path fill="currentColor" d="M24.86 2.257a1.755 1.755 0 0 1 2.494-.002l.887.892c.689.693.689 1.816.001 2.509L16.25 17.742a1.756 1.756 0 0 1-2.494.003L1.758 5.686a1.784 1.784 0 0 1 0-2.51l.887-.894a1.755 1.755 0 0 1 2.493-.002l8.615 8.632c.689.692 1.806.69 2.494-.003l8.613-8.652z"/></symbol><symbol id="pine-cone" viewBox="0 0 30 30"><path fill="currentColor" d="M21.308 11.762c-1.787-1.646.129-3.549.129-3.549-2.286 1.245-3.222-.358-3.349-.176-1.32 1.902-.611 3.507.21 4.201 1.032.872 3.35-.163 3.01-.476M17.112 12.848c-2.925 1.404-4.448-.613-4.805-.274-2.463 2.337-1.466 4.842-.23 5.87 1.537 1.276 4.652-.771 4.252-1.331-1.24-1.733.783-4.265.783-4.265M7.619 23.238c1.116.85 3.764-.36 3.456-.731-1.517-1.83-.564-3.769-.564-3.769-2.184 1.01-2.703-.912-2.85-.735-1.989 2.386-.93 4.559-.042 5.235M6.37 27.491c-1.735-1.419-.257-3.918-.257-3.918-2.395 1.236-3.699.006-3.75.217-.391 1.607.356 2.801 1.213 3.465 1.078.834 2.963.375 2.794.236M18.421 18.24c1.134.735 3.505-.465 3.229-.84-1.524-2.064-.212-4.247-.212-4.247-2.17 1.485-3.495.376-3.602.569-1.127 2.018-.317 3.933.585 4.518M13.469 7.919c-1.819 2.111-1.049 3.501.087 4.207 1.148.714 3.232.031 2.968-.354-1.185-1.728.297-3.681.297-3.681-2.321 1.155-3.208-.339-3.352-.172"/><path fill="currentColor" d="M16.986 22.445c-1.855-1.566-.584-3.766-.584-3.766-3.076 2.345-4.771.327-4.869.524-1.027 2.065.836 3.104 1.808 3.573 1.697.819 3.68-.301 3.645-.331M19.351 22.773c1.411.373 3.447-.66 3.214-1.069-.97-1.706.234-3.825.234-3.825-2.627 2.519-5.234 1.097-5.325 1.297-.957 2.094.821 3.318 1.877 3.597M17.384 26.907c-.873-1.896.034-3.653.034-3.653-2.618 1.641-4.599.182-4.731.36-1.376 1.863.189 3.304 1.327 3.685 1.295.434 3.568.039 3.37-.392M22.417 12.783c-.812 2.689-.056 4.078 1.463 4.269 1.378.173 2.37-.778 2.286-.898-1.184-1.686-.732-4.164-.732-4.164-1.74 2.024-2.954.585-3.017.793"/><path fill="currentColor" d="M11.514 23.416c-2.775 2.122-4.597.481-4.662.597-1.134 2.013.715 3.57 1.819 3.956 1.287.451 4.066-.086 3.992-.14-2.475-1.783-1.149-4.413-1.149-4.413M14.257 6.998c.704 1.18 3.036.339 2.913.097-1.109-2.175.992-3.344.992-3.344-2.87.055-3.303-.987-3.437-.812-1.46 1.905-1.028 3.12-.468 4.059M7.071 16.343c1.251 1.715 3.413 1.333 3.293 1.193-1.589-1.853 1.161-5.603 1.161-5.603-2.391.927-4.138-.221-4.269-.042-1.121 1.532-.825 3.575-.185 4.452M8.622 6.654c-1.287 1.925-1.219 3.54-.034 4.309 1.045.677 3.184.063 3.1-.132-.852-1.975 1.243-4.101 1.243-4.101-1.68.983-4.16-.299-4.309-.076M22.018 8.441c-1.198 1.726-.408 2.81.338 3.439.936.791 2.855-.278 2.692-.531-1.205-1.881-.05-3.18-.05-3.18-2.075 1.13-2.865.107-2.98.272M18.345 4.758c-.88 1.813-.017 2.154.737 2.752.925.734 2.635.018 2.478-.192-.938-1.253.22-2.842.332-2.99l.005-.01c-1.996 1.084-3.461.253-3.552.44M5.901 22.519c-1.424-1.862.852-5.051.852-5.051-3.007 2.03-4.117.961-4.235 1.148-1.114 1.77-.512 3.401.309 4.095 1.033.872 3.357.178 3.074-.192"/><path fill="currentColor" d="M6.261 16.511c-1.855-1.566.181-4.611.181-4.611-2.421 2.216-3.695 1.166-3.803 1.358-1.256 2.231-.397 3.696.545 4.218 1.184.655 3.236-.831 3.077-.965M6.72 10.757c-.921-2.382 1.217-4.992 1.217-4.992-2.14 1.136-3.382 2.488-3.753 3.104-.944 1.571-1.158 2.973-.454 3.18 1.313.387 3.114-.97 2.99-1.292M8.888 5.098c.384 1.359 4.071 1.124 3.899.698-.542-1.348 1.422-3.253 1.422-3.253-2.442.068-5.45 2.097-5.321 2.555M22.811 22.82c-3.404 1.734-4.641.725-4.668.937-.793 6.302 4.668-.937 4.668-.937M23.891 18.465s-.598.812-.769 1.636c-.171.824.403 1.889.403 1.889 2.494-.992 2.728-5.054 2.432-4.569-.297.485-2.066 1.044-2.066 1.044M19.064 4.087c.801.627 2.676-.353 2.588-.409-1.699-1.086-3.223-.088-2.588.409M15.801 2.57c.8.627 2.896.234 2.799.195-2.158-.854-3.434-.692-2.799-.195M27.129 14.965c.488-.595-.518-3.172-.552-3.061-.604 1.969-.03 3.771.552 3.061M26.368 10.615c.249-.758-.713-1.923-.732-1.843-.375 1.548.534 2.444.732 1.843M24.534 4.465l-.158.118a.673.673 0 0 1 .446.203.69.69 0 0 1 .185.687.973.973 0 0 0 .024.294l.303-.227c1.193-.888 2.081-1.55 2.757-3.664a1.216 1.216 0 0 1-.447.184 1.267 1.267 0 0 1-.959-.208c-.516 1.396-1.143 1.863-2.151 2.613M22.452 4.876a3.534 3.534 0 0 0-.221.837 2.615 2.615 0 0 0-.015.54c.009.119.027.23.052.334a1.775 1.775 0 0 0 .224.529c.048.072.099.136.154.19.011.012.024.022.036.033l.035.032.037.027.039.028.039.023a.927.927 0 0 0 .042.025l.041.02.044.021.042.016.048.018.043.012c.017.005.033.011.05.015l.043.01.053.011.043.007.055.009.044.004.056.006.041.002.06.003H23.639l.042-.001.061-.002.043-.003.059-.005.037-.004.065-.007.035-.005.065-.009.025-.004a1.91 1.91 0 0 0 .074-.013l.018-.003.078-.016.04-.009.053-.012.032-.008.058-.015.02-.005.066-.019.015-.004.067-.02.012-.004.064-.021.012-.004a2.41 2.41 0 0 0 .161-.061l.023-.01.026-.011.025-.012c.027-.012.048-.024.067-.034l.014-.008.019-.012a.055.055 0 0 0 .008-.006.117.117 0 0 0 .025-.021c.004-.007.005-.012.001-.015a3.634 3.634 0 0 1-.308-.382 3.008 3.008 0 0 1-.215-.359 2.307 2.307 0 0 1-.112-.257l-.027-.069a2.208 2.208 0 0 1-.105-.482 1.71 1.71 0 0 1-.008-.192l.001-.015a1.061 1.061 0 0 1 .016-.168 1.477 1.477 0 0 1-.11.058l-.034.016a1.396 1.396 0 0 1-.071.031l-.04.014a.734.734 0 0 1-.061.021l-.04.011a.64.64 0 0 1-.056.013l-.04.008-.042.006-.01.001-.038.003a.87.87 0 0 1-.051.002h-.036l-.048-.004-.033-.003-.049-.009-.029-.006a.428.428 0 0 1-.051-.015l-.023-.007a.883.883 0 0 1-.136-.062l-.021-.013-.042-.027-.024-.017c-.012-.009-.024-.017-.035-.027l-.024-.019-.032-.028-.023-.022-.016-.015-.013-.014-.023-.025-.027-.029a.507.507 0 0 0-.022-.026l-.024-.03-.021-.027-.023-.031-.019-.027a.833.833 0 0 1-.021-.031l-.017-.026-.02-.032-.016-.026-.018-.03-.015-.026-.017-.03-.013-.024a.437.437 0 0 0-.016-.03l-.01-.021-.016-.03-.009-.018-.013-.025-.025-.052-.003-.005-.017-.034-.001-.002-.013-.025-.004-.006-.008-.014-.005-.006-.006-.007-.006-.003-.002-.001c-.003 0-.005.001-.007.005-.026.053-.048.104-.071.155-.03.067-.058.133-.083.198"/></symbol><symbol id="social-facebook" viewBox="0 0 10 18"><path fill="currentColor" d="M6.138 16.724V9.677h2.25l.337-2.746H6.138V5.178c0-.795.21-1.337 1.295-1.337l1.383-.001V1.384A17.761 17.761 0 0 0 6.8 1.276c-1.994 0-3.36 1.28-3.36 3.63v2.025H1.184v2.746H3.44v7.047h2.698z"/></symbol><symbol id="social-instagram" viewBox="0 0 18 18"><path fill="currentColor" d="M9 2.668c2.038 0 2.279.008 3.084.045.744.034 1.148.16 1.417.266.356.14.61.307.877.578.267.27.432.528.571.888.105.272.229.681.263 1.434.036.814.044 1.059.044 3.121 0 2.062-.008 2.307-.045 3.121-.034.753-.158 1.162-.263 1.434-.138.36-.304.618-.571.888-.267.27-.521.438-.877.578-.269.106-.673.232-1.417.266-.805.037-1.046.045-3.084.045-2.038 0-2.279-.008-3.084-.045-.744-.034-1.148-.16-1.417-.266a2.356 2.356 0 0 1-.878-.578 2.406 2.406 0 0 1-.571-.888c-.105-.272-.229-.681-.263-1.434-.034-.814-.042-1.059-.042-3.121 0-2.062.008-2.307.044-3.121.034-.753.158-1.162.263-1.434.138-.36.304-.618.571-.888a2.36 2.36 0 0 1 .878-.578c.269-.106.673-.232 1.417-.266.804-.037 1.045-.045 3.083-.045m0-1.392c-2.073 0-2.332.009-3.146.046-.813.038-1.367.169-1.853.359a3.744 3.744 0 0 0-1.351.891 3.79 3.79 0 0 0-.88 1.368c-.189.492-.318 1.053-.355 1.875-.037.824-.046 1.087-.046 3.185s.009 2.361.046 3.185c.037.822.166 1.384.355 1.875.195.508.456.939.88 1.368.424.429.85.693 1.352.891.485.191 1.04.322 1.852.359.814.037 1.073.046 3.146.046 2.072 0 2.332-.009 3.146-.046.812-.038 1.367-.168 1.852-.359a3.73 3.73 0 0 0 1.352-.891c.424-.43.685-.86.88-1.368.189-.491.318-1.053.355-1.875.037-.824.046-1.087.046-3.185s-.009-2.361-.046-3.185c-.037-.822-.166-1.384-.355-1.875a3.79 3.79 0 0 0-.88-1.368 3.734 3.734 0 0 0-1.352-.891c-.485-.191-1.04-.321-1.852-.359-.814-.037-1.074-.046-3.146-.046z"/><path fill="currentColor" d="M9 5.034C6.836 5.034 5.081 6.809 5.081 9S6.836 12.967 9 12.967 12.919 11.191 12.919 9 11.164 5.034 9 5.034zm0 6.541c-1.405 0-2.544-1.153-2.544-2.575 0-1.422 1.139-2.575 2.544-2.575S11.544 7.578 11.544 9c0 1.422-1.139 2.575-2.544 2.575zM13.989 4.877c0 .512-.41.927-.916.927s-.916-.415-.916-.927.41-.927.916-.927.916.415.916.927z"/></symbol><symbol id="social-twitter" viewBox="0 0 22 18"><path fill="currentColor" d="M20.539 3.105c-.702.31-1.456.52-2.248.614a3.915 3.915 0 0 0 1.721-2.158 7.826 7.826 0 0 1-2.486.946 3.915 3.915 0 0 0-2.857-1.232 3.907 3.907 0 0 0-3.813 4.789A11.126 11.126 0 0 1 2.789 1.99 3.894 3.894 0 0 0 4 7.197a3.908 3.908 0 0 1-1.773-.488v.049a3.905 3.905 0 0 0 3.14 3.824 3.934 3.934 0 0 1-1.767.067 3.916 3.916 0 0 0 3.656 2.708 7.87 7.87 0 0 1-4.861 1.669c-.316 0-.628-.018-.934-.054a11.104 11.104 0 0 0 6 1.752c7.199 0 11.136-5.943 11.136-11.096 0-.169-.004-.337-.011-.504a7.942 7.942 0 0 0 1.953-2.019z"/></symbol><symbol id="social-youtube" viewBox="0 0 24 18"><path fill="currentColor" d="M22.417 4.609s-.208-1.513-.845-2.18c-.808-.875-1.714-.879-2.13-.93-2.975-.222-7.437-.222-7.437-.222h-.009s-4.462 0-7.437.222c-.416.051-1.321.055-2.13.93-.637.667-.845 2.18-.845 2.18s-.213 1.777-.213 3.554V9.83c0 1.777.213 3.555.213 3.555s.207 1.513.845 2.18c.809.875 1.871.847 2.344.939 1.7.168 7.227.22 7.227.22s4.467-.007 7.442-.229c.416-.051 1.322-.056 2.13-.93.637-.667.845-2.18.845-2.18s.212-1.777.212-3.555V8.163c0-1.777-.212-3.554-.212-3.554zM9.78 12.045V5.859l5.648 3.031-5.648 3.155z"/></symbol></svg>